<svg xmlns="http://www.w3.org/2000/svg" viewBox="0 0 162 162"><defs><style>.a,.b,.d{fill:#fff;}.a,.b,.c{stroke:#fff;stroke-miterlimit:10;}.a,.b{stroke-linecap:round;}.a{stroke-width:2px;}.b{stroke-width:5px;}.c{fill:none;stroke-width:9px;}</style></defs><line class="a" x1="120.6" y1="41.1" x2="134.6" y2="27.5"/><line class="a" x1="25.1" y1="134.7" x2="39" y2="121"/><line class="a" x1="119.1" y1="120.9" x2="132.7" y2="134.9"/><line class="a" x1="27.2" y1="27.1" x2="40.9" y2="41.1"/><line class="b" x1="81" y1="24" x2="81" y2="4.5"/><line class="b" x1="81" y1="157.8" x2="81" y2="138.3"/><line class="b" x1="136.9" y1="81" x2="156.5" y2="81"/><line class="b" x1="5.6" y1="81" x2="25.2" y2="81"/><circle class="c" cx="81" cy="81" r="76.5"/><path class="d" d="M121.5,79.7a22.8,22.8,0,0,1-1,7.2,16.6,16.6,0,0,1-2.7,5.5,18.7,18.7,0,0,1-3.8,4.1,20.8,20.8,0,0,1-4.7,2.8,22.6,22.6,0,0,1-4.8,1.6,25.8,25.8,0,0,1-4.6.5H73.5V89.7H99.9a13.6,13.6,0,0,0,4.1-.9,11,11,0,0,0,3.1-2,10.5,10.5,0,0,0,2-3,10.7,10.7,0,0,0,.7-4.1V74.4a13,13,0,0,0-.9-4,9.8,9.8,0,0,0-2-3.1,8.1,8.1,0,0,0-3-2.1,9.9,9.9,0,0,0-4-.7H73.6A4.9,4.9,0,0,0,70,65.7a4.8,4.8,0,0,0-1.2,3.5v48H57.1v-48a16.5,16.5,0,0,1,1.7-7.7,15.5,15.5,0,0,1,4.1-5,14.3,14.3,0,0,1,5.3-2.8,17.8,17.8,0,0,1,5.3-.9H99.9a22.6,22.6,0,0,1,7.1,1,21.7,21.7,0,0,1,5.5,2.7,16.9,16.9,0,0,1,4.1,3.9,21.8,21.8,0,0,1,2.8,4.6,22.6,22.6,0,0,1,1.6,4.8,26.8,26.8,0,0,1,.5,4.6Z" transform="translate(-3.5 -3.2)"/></svg>